<svg width="269" height="50" viewBox="0 0 269 50" fill="none" xmlns="http://www.w3.org/2000/svg">
    <path
        d="M27.3774 25.7691C27.5332 25.8322 27.627 25.8985 27.7699 25.9851L27.8051 26.2294C27.1132 28.1596 25.8742 30.8698 25.083 32.834C24.31 34.7528 22.6873 39.0347 21.5838 40.6146C20.7502 41.8096 19.6509 42.7945 18.3726 43.4919C15.9126 44.8403 13.3462 44.828 10.7219 44.0482C10.3169 43.8883 10.0085 43.7182 9.62572 43.514C11.6025 41.4002 14.0455 39.0878 16.1097 37.0316L27.3774 25.7691Z"
        fill="white" />
    <path
        d="M35.4669 24.1668C36.5383 24.1641 56.2941 32.6026 58.9046 33.6926C58.3582 34.4466 57.7822 34.8868 57.053 35.4335C55.6819 36.367 54.0854 36.8747 52.472 37.0403C50.3558 37.2576 47.3978 36.4057 45.8194 34.9434C43.6469 32.931 41.4903 30.6609 39.3624 28.5714C38.1635 27.3939 36.8551 26.0802 35.6901 24.8587C35.4542 24.6109 35.4946 24.4942 35.4669 24.1668Z"
        fill="white" />
    <path
        d="M33.9213 25.7702C34.2976 25.8249 34.5091 26.0374 34.7663 26.2925C37.3236 28.8213 39.8533 31.3796 42.3925 33.9264L50.0389 41.5718C50.498 42.037 51.681 42.9324 51.8107 43.4723C51.664 43.7939 51.5343 43.7665 51.1453 43.9501C48.9154 44.6772 47.0394 44.847 44.7531 44.1448C42.502 43.4408 40.1711 41.4511 39.2251 39.2572C37.3991 35.0234 35.6506 30.7166 33.8969 26.4503C33.7725 26.1468 33.8289 26.0494 33.9213 25.7702Z"
        fill="white" />
    <path
        d="M59.4136 10.1713L59.5656 10.2943C59.6039 10.4942 59.623 10.6971 59.623 10.9006C59.6092 13.416 58.6048 15.8244 56.8276 17.6024C53.5465 20.8703 50.0805 20.3241 45.915 20.3222L36.55 20.308C36.3746 20.1817 36.4384 20.233 36.3321 20.0136C36.4384 19.7709 36.5361 19.6632 36.8136 19.5488C39.086 18.6113 41.3967 17.6591 43.6628 16.7165L59.4136 10.1713Z"
        fill="white" />
    <path
        d="M2.04051 10.1202C3.37177 10.5939 5.07546 11.3815 6.42437 11.9333L17.4904 16.5298C19.8357 17.5032 22.7715 18.6254 25.0984 19.7321C25.2893 19.823 25.279 20.0462 25.3188 20.2672C23.7913 20.4266 21.0188 20.2979 19.4042 20.3205C16.7166 20.2712 14.0161 20.3952 11.3296 20.3277C5.55376 20.1827 1.81571 15.6793 2.04051 10.1202Z"
        fill="white" />
    <path
        d="M53.1042 0.0290048C53.32 0.207061 53.3966 0.407042 53.506 0.670455C54.4339 2.89972 54.4127 5.6572 53.5167 7.87476C52.8725 9.43299 51.8139 10.7847 50.4566 11.7837C48.9016 12.9279 45.629 14.1127 43.7094 14.9048L36.3606 17.9772C36.028 18.1329 35.8728 18.1627 35.5465 18.0333L35.4816 17.814C35.7304 17.2083 51.4621 1.59671 53.1042 0.0290048Z"
        fill="white" />
    <path
        d="M29.4331 26.7091L29.7955 26.7709C30.0358 27.0407 29.9805 27.3785 29.9816 27.7555C29.9869 31.389 29.9645 35.0234 29.9688 38.657C29.9709 40.0944 30.0209 41.5278 29.6786 42.9352C29.2907 44.4943 28.4988 45.9232 27.3829 47.0777C25.4043 49.1537 23.0499 49.9294 20.2596 50C19.9665 49.9656 20.0756 50.0304 19.8966 49.8535C19.9034 49.2508 28.4244 29.0076 29.4331 26.7091Z"
        fill="white" />
    <path
        d="M31.9711 26.6165C32.4558 26.9615 34.0214 31.0545 34.3361 31.8116L40.5412 46.805C40.8919 47.6504 41.5254 49.0097 41.7582 49.8191L41.6444 49.9895C39.1328 50.0462 36.7095 49.3413 34.8069 47.651C32.9224 45.9698 31.7937 43.5987 31.6757 41.0738C31.4259 36.613 31.7979 31.7485 31.6565 27.2529C31.6459 26.92 31.7713 26.8421 31.9711 26.6165Z"
        fill="white" />
    <path
        d="M25.8155 24.1185C25.9709 24.2202 25.9754 24.2498 26.1035 24.3943L26.0717 24.6683C25.6897 25.3037 16.2745 34.5691 15.4973 35.1586C14.5177 35.8997 13.4039 36.4435 12.2175 36.7598C9.53939 37.4832 7.14536 36.9351 4.78565 35.5894C3.86615 34.9441 3.39126 34.578 2.70453 33.6819L25.8155 24.1185Z"
        fill="white" />
    <path
        d="M8.42546 0C8.90695 0.321736 10.2729 1.74459 10.7643 2.24023L14.9709 6.46802L22.3408 13.8354C23.5211 15.016 24.7454 16.2246 25.9096 17.4234C26.1085 17.6283 26.1148 17.7922 26.0858 18.032C25.7805 18.1907 25.8839 18.1432 25.4669 18.069C21.4052 16.3535 17.3247 14.6789 13.2573 12.9781C7.99819 10.7787 6.06533 5.09104 8.42546 0Z"
        fill="white" />
    <path
        d="M0 21.9742L23.2831 21.9734C23.8357 21.9681 24.9038 21.9052 25.2749 22.2703C24.984 22.8259 21.755 24.0279 20.9496 24.3625C18.2334 25.4528 15.5485 26.6299 12.8306 27.7101C10.2315 28.7431 7.82271 28.8872 5.21419 27.765C2.53136 26.6109 1.02345 24.621 0 21.9742Z"
        fill="white" />
    <path
        d="M36.4297 22.0225C39.19 21.9084 42.4498 21.9864 45.2643 21.9864L61.6285 21.9791C60.944 23.788 60.2606 24.8263 58.899 26.1685C58.5355 26.4801 58.1518 26.767 57.7511 27.0271C55.7157 28.3718 53.2306 28.8503 50.8434 28.3571C48.166 27.7818 39.5737 23.7469 36.5041 22.5961C36.453 22.5182 36.4031 22.4403 36.3531 22.3625L36.4297 22.0225Z"
        fill="white" />
    <path
        d="M106.315 10.2191V11.2786H102.702L91.3864 39.8869H90.0051L76.6707 11.2786H74.1207V10.2191H89.1551V11.2786H86.552L94.3083 29.0263L101.321 11.2786H97.0708V10.2191H106.315Z"
        fill="white" />
    <path
        d="M125.97 38.8273C131.282 38.8273 133.938 35.8252 133.938 29.821H135.001V39.8869H110.032V38.8273H112.688V11.2786H110.032V10.2191H134.47V19.2254H133.407C133.407 16.082 132.77 13.9805 131.495 12.921C130.255 11.8261 128.236 11.2786 125.438 11.2786H120.657V23.9934H122.782C125.332 23.9934 126.943 23.6755 127.616 23.0398C128.289 22.4041 128.626 21.1326 128.626 19.2254H129.688V29.821H128.626C128.626 27.8432 128.289 26.554 127.616 25.9536C126.943 25.3532 125.332 25.053 122.782 25.053H120.657V38.8273H125.97Z"
        fill="white" />
    <path
        d="M163.95 29.821H165.012V39.8869H140.044V38.8273H142.7V11.2786H140.044V10.2191H153.856V11.2786H150.669V38.8273H155.981C157.185 38.8273 158.177 38.739 158.956 38.5624C159.771 38.3858 160.603 38.015 161.453 37.4499C163.118 36.355 163.95 33.812 163.95 29.821Z"
        fill="white" />
    <path
        d="M190.009 25C190.009 20.4792 189.389 16.965 188.15 14.4573C186.946 11.9144 185.263 10.6429 183.103 10.6429C180.978 10.6429 179.296 11.9144 178.056 14.4573C176.817 17.0003 176.197 20.5498 176.197 25.106C176.197 29.6621 176.781 33.1763 177.95 35.6486C179.154 38.1209 180.872 39.3571 183.103 39.3571C187.707 39.3571 190.009 34.5714 190.009 25ZM198.562 25.3179C198.562 30.1565 197.128 33.8827 194.259 36.4963C191.391 39.1099 187.654 40.4167 183.05 40.4167C178.446 40.4167 174.727 39.1275 171.894 36.5493C169.06 33.9357 167.644 30.2095 167.644 25.3708C167.644 20.4968 169.06 16.6471 171.894 13.8216C174.727 10.9961 178.481 9.58333 183.156 9.58333C187.867 9.58333 191.603 10.9961 194.366 13.8216C197.163 16.6118 198.562 20.4439 198.562 25.3179Z"
        fill="white" />
    <path
        d="M212.91 11.2786V24.947C216.452 24.947 218.824 24.4349 220.029 23.4107C221.233 22.3864 221.835 20.6734 221.835 18.2718C221.835 15.8701 221.215 14.1041 219.976 12.9739C218.736 11.8437 216.381 11.2786 212.91 11.2786ZM233.788 40.4167H231.451C227.023 40.4167 223.942 39.4631 222.207 37.5558C220.826 36.0725 219.887 34.1123 219.391 31.6753C219.179 30.651 218.948 29.7151 218.701 28.8674C218.134 26.9602 216.983 26.0066 215.247 26.0066H212.91V38.8273H215.566V39.8869H202.285V38.8273H204.941V11.2786H202.285V10.2191H216.257C225.288 10.2191 229.804 12.8503 229.804 18.1128C229.804 20.1966 229.042 21.8919 227.519 23.1987C225.996 24.5055 224.048 25.1589 221.676 25.1589V25.5298C225.217 25.5298 227.679 27.8608 229.06 32.5229C229.768 34.9952 230.477 36.7612 231.185 37.8207C231.929 38.845 232.796 39.3571 233.788 39.3571V40.4167Z"
        fill="white" />
    <path
        d="M269 38.8273V39.8869H255.028V38.8273H258.162L254.603 31.4633H243.872L240.791 38.8273H244.987V39.8869H235.903V38.8273H239.462L251.628 9.68929H252.956L266.45 38.8273H269ZM244.35 30.3508H254.072L248.866 19.5432L244.35 30.3508Z"
        fill="white" />
</svg>